<svg preserveAspectRatio="none" width="100%" height="100%" overflow="visible" style="display: block;" viewBox="0 0 16 14" fill="none" xmlns="http://www.w3.org/2000/svg">
<path id="Vector" d="M13.9248 8.67765C14.7326 8.59385 15.2115 9.49119 14.8335 10.1655C15.0888 10.397 15.1989 10.7228 15.1524 11.0664C15.1359 11.1888 15.0114 11.4073 15.0117 11.4661C15.0117 11.5321 15.1139 11.6973 15.1274 11.8004C15.2492 12.7167 14.1439 13.1682 13.4494 13.4329C12.0065 13.983 9.87032 14.4418 8.63268 13.2587C7.93458 13.3705 7.21961 13.391 6.52211 13.262C6.35874 13.3795 6.2225 13.5224 6.04737 13.6261C4.86549 14.3269 2.92885 13.8941 1.7093 13.4326C1.03743 13.1782 -0.0693979 12.7149 0.0321816 11.8308C0.0469513 11.703 0.154861 11.5348 0.148531 11.4375C0.143407 11.36 0.032483 11.1876 0.0122877 11.0604C-0.0190603 10.8618 0.0101777 10.6586 0.093069 10.475C0.133761 10.3846 0.320643 10.1848 0.32426 10.1658C0.334207 10.1151 0.221777 9.91137 0.20972 9.80798C0.143105 9.23256 0.53405 8.65685 1.14443 8.67734C0.54249 6.53604 0.915652 4.29375 2.29104 2.5449C4.40281 -0.140476 8.21822 -0.797577 11.1188 1.03899C13.6628 2.64979 14.7974 5.78459 13.9248 8.67734V8.67765ZM13.412 7.95453C13.7252 6.43958 13.4512 4.83692 12.641 3.52603C10.9021 0.712249 7.1542 -0.169111 4.34192 1.612C2.18223 2.97955 1.11851 5.56847 1.71744 8.0748C2.3251 7.44 3.15341 7.83848 3.60284 8.4356C3.7234 8.33794 3.82709 8.21315 3.96786 8.14051C4.31238 7.96267 4.73829 8.01964 5.03278 8.27042C5.3746 8.5616 5.57957 9.29828 5.84572 9.71816C6.35151 10.516 7.12767 10.8708 7.05352 11.9794C7.03785 12.2154 6.94893 12.4005 6.9013 12.626H8.28785C8.12508 12.242 8.07022 11.9502 8.14558 11.5342C8.2993 10.6857 9.09687 10.1884 9.50921 9.4315C9.85344 8.79972 9.97612 7.91746 10.953 8.04707C11.2358 8.08445 11.3756 8.27645 11.5845 8.4341C11.9516 7.96569 12.5216 7.58619 13.132 7.82763C13.2306 7.86652 13.2999 7.96478 13.4123 7.95423L13.412 7.95453ZM2.37213 8.44254C2.16354 8.48805 2.175 8.76265 2.20122 8.93235C2.25819 9.29797 3.16487 10.0648 3.43434 10.3819C3.51663 10.4786 3.71587 10.7014 3.67307 10.8289C3.51994 10.976 3.2773 10.7692 3.1498 10.6664C2.71093 10.3135 1.72105 9.345 1.15558 9.34319C0.956344 9.34258 0.868931 9.56443 0.909925 9.74167C0.986486 10.075 2.43 10.8084 2.7697 11.077C2.8752 11.1605 3.05123 11.2889 3.04611 11.4351C3.03676 11.7027 2.83541 11.5577 2.69194 11.4866C2.25728 11.2708 1.43772 10.6438 0.97895 10.6354C0.58047 10.6279 0.638945 11.0381 0.888825 11.2403C1.21165 11.502 2.43663 11.8447 2.5575 12.0732C2.66119 12.2688 2.54786 12.3547 2.34862 12.3122C1.96249 12.2299 1.22069 11.5809 0.843913 11.7386C0.667581 11.8121 0.714 12.0141 0.800207 12.1425C1.03773 12.4967 2.36037 12.9542 2.79593 13.0706C3.88768 13.3618 5.71521 13.6559 6.26168 12.3637C6.63304 11.4854 6.12243 11.1731 5.63684 10.5917C5.20068 10.0696 5.04906 9.60844 4.75819 9.0288C4.43084 8.37683 3.97811 8.84825 4.04171 9.41372C4.09958 9.92795 4.41276 9.95055 4.64124 10.261C4.88991 10.5995 4.54086 10.8117 4.2521 10.6502C4.08933 10.5591 3.64383 9.70067 3.49673 9.47642C3.29418 9.16776 2.79985 8.3497 2.37273 8.44284L2.37213 8.44254ZM11.4859 10.8452C11.467 10.7496 11.5233 10.6658 11.5737 10.592C11.8775 10.1447 12.4481 9.73624 12.7908 9.27718C12.9391 9.07854 13.0772 8.7732 12.9367 8.53568C12.861 8.40787 12.729 8.42475 12.6039 8.45731C12.2922 8.53899 11.9085 9.12526 11.7301 9.39172C11.5079 9.72358 11.2701 10.2686 11.0444 10.5447C10.7824 10.8651 10.2688 10.6517 10.5187 10.2903C10.6459 10.1064 10.9491 9.9189 11.0585 9.70821C11.3289 9.18705 10.9166 8.33312 10.4885 8.90371C10.3634 9.0707 10.2908 9.37363 10.1925 9.57227C10.1199 9.71906 10.0153 9.89057 9.92849 10.0316C9.38774 10.9097 8.31136 11.4233 9.03598 12.5871C9.83807 13.8754 12.4246 13.1583 13.5534 12.6619C13.7843 12.5603 14.6955 12.1383 14.3911 11.7835C14.1659 11.521 13.4081 12.0466 13.1718 12.16C13.0316 12.2272 12.5846 12.478 12.569 12.1871C12.562 12.0614 12.691 11.9837 12.7836 11.9225C13.1655 11.6693 14.2651 11.4727 14.4489 11.0562C14.518 10.9 14.4824 10.6848 14.2949 10.6435C14.0474 10.589 13.5299 10.8714 13.3017 10.9941C13.1411 11.0803 12.279 11.6518 12.1765 11.5891C12.0161 11.4025 12.213 11.2229 12.3601 11.1071C12.8095 10.7544 13.3976 10.5106 13.8443 10.1799C14.0526 10.0256 14.414 9.75855 14.2265 9.47642C14.0312 9.18313 13.548 9.49661 13.3246 9.62984C12.7893 9.94935 12.4234 10.368 11.9498 10.7267C11.8085 10.834 11.6668 10.9323 11.4862 10.8452H11.4859Z" fill="var(--fill-0, #FE9D02)"/>
</svg>
