<svg preserveAspectRatio="none" width="100%" height="100%" overflow="visible" style="display: block;" viewBox="0 0 12 12" fill="none" xmlns="http://www.w3.org/2000/svg">
<path id="Vector" d="M11.8602 7.26526C11.7481 7.2755 11.6784 7.17754 11.5799 7.13866C10.9695 6.89722 10.3995 7.27671 10.0324 7.74512C9.82377 7.58718 9.68361 7.39547 9.40088 7.35809C8.42427 7.22848 8.30159 8.11105 7.95706 8.74253C7.54472 9.4991 6.74685 9.99645 6.59343 10.8453C6.51807 11.2615 6.57293 11.553 6.7357 11.937H5.34915C5.39678 11.7118 5.4857 11.5265 5.50137 11.2905C5.57552 10.1818 4.79936 9.82675 4.29357 9.02918C4.02741 8.6093 3.82245 7.87232 3.48063 7.58145C3.18614 7.33067 2.76023 7.27339 2.41571 7.45154C2.27494 7.52418 2.17125 7.64897 2.05068 7.74663C1.60126 7.14951 0.772953 6.75103 0.165285 7.38583C-0.433642 4.8795 0.630079 2.29058 2.78977 0.923021C5.60205 -0.858086 9.34994 0.023274 11.0888 2.83706C11.8991 4.14794 12.1731 5.75061 11.8599 7.26556L11.8602 7.26526ZM3.62441 3.1436C2.89949 3.24669 2.6252 4.20431 3.19549 4.67212C3.62682 5.02599 3.61838 4.39511 3.89509 4.34598C4.12688 4.30498 4.4271 4.67393 4.56787 4.29775C4.79574 3.68857 4.26072 3.05318 3.62441 3.1436ZM7.93476 3.1439C7.41601 3.21444 7.06817 3.78171 7.24028 4.27454C7.37351 4.65584 7.60229 4.36828 7.84524 4.34748C8.20664 4.31674 8.17348 5.09079 8.66631 4.62901C9.26946 4.06354 8.75764 3.03177 7.93446 3.1439H7.93476ZM1.93644 4.04636C1.72002 4.07711 1.5033 4.29956 1.46864 4.51447C1.36736 5.14053 2.21436 5.40246 2.51186 4.89457C2.75209 4.48433 2.40395 3.97975 1.93644 4.04636ZM9.95399 4.04697C9.33607 4.13438 9.32522 5.0715 9.91902 5.15228C10.8462 5.27858 10.7609 3.93273 9.95399 4.04697ZM7.27886 8.01881C7.2873 8.01278 7.34608 8.02303 7.38466 7.99018C7.79882 7.63661 8.14304 6.94937 8.18283 6.4056C8.21297 5.99175 8.17469 5.85369 7.7536 6.00621C7.22973 6.19611 6.80744 6.53702 6.2055 6.59821C5.37116 6.68291 4.9558 6.34863 4.25529 6.05414C4.10337 5.99024 3.92162 5.88504 3.75945 5.97577C3.60542 6.13372 3.79773 6.83483 3.87248 7.03949C4.04038 7.49796 4.27338 7.79395 4.65678 8.0788C5.39497 8.62739 6.49516 8.63673 7.24781 8.09146C7.27585 8.07126 7.27585 8.02092 7.27916 8.01851L7.27886 8.01881Z" fill="var(--fill-0, #FED11E)"/>
</svg>
