<svg preserveAspectRatio="none" width="100%" height="100%" overflow="visible" style="display: block;" viewBox="0 0 6 5" fill="none" xmlns="http://www.w3.org/2000/svg">
<path id="Vector" d="M2.6931 2.41138C2.87395 2.49849 3.01532 2.40022 3.15669 2.29292C3.63022 1.93422 3.99615 1.51555 4.53147 1.19604C4.75483 1.06281 5.23801 0.749331 5.43333 1.04261C5.62112 1.32475 5.25971 1.59181 5.05113 1.74614C4.60442 2.0768 4.01604 2.32035 3.56692 2.67331C3.41953 2.78906 3.223 2.96871 3.38336 3.15529C3.48614 3.21798 4.34791 2.64618 4.50857 2.56028C4.73705 2.4379 5.25459 2.15517 5.50176 2.20972C5.68924 2.25102 5.72481 2.46623 5.65578 2.62237C5.47191 3.03894 4.37202 3.23577 3.99042 3.48866C3.89788 3.54985 3.76888 3.62762 3.77581 3.75331C3.79148 4.04418 4.23849 3.7934 4.37865 3.72618C4.61497 3.61285 5.37275 3.08747 5.59791 3.3497C5.90204 3.70448 4.99114 4.12647 4.76026 4.22805C3.63143 4.7248 1.04492 5.44158 0.242832 4.1533C-0.481788 2.9895 0.594593 2.47618 1.13535 1.59784C1.22215 1.45677 1.32675 1.28526 1.39939 1.13847C1.49796 0.93983 1.5703 0.6369 1.69539 0.469912C2.12341 -0.100983 2.53575 0.753249 2.26538 1.27441C2.15596 1.4851 1.85273 1.67259 1.72553 1.85646C1.47565 2.21786 1.98928 2.43127 2.25121 2.11086C2.47698 1.83475 2.7148 1.28978 2.93695 0.957915C3.11539 0.691156 3.4991 0.10519 3.81077 0.0235048C3.93586 -0.00935024 4.06789 -0.0262297 4.14354 0.101875C4.28401 0.339396 4.14626 0.644737 3.99766 0.843375C3.65494 1.30244 3.08434 1.71087 2.78051 2.15818C2.73017 2.23233 2.67381 2.31613 2.6928 2.41138H2.6931Z" fill="var(--fill-0, #FED11E)"/>
</svg>
