<svg preserveAspectRatio="none" width="100%" height="100%" overflow="visible" style="display: block;" viewBox="0 0 6 5" fill="none" xmlns="http://www.w3.org/2000/svg">
<path id="Vector" d="M1.68201 0.00734227C2.10942 -0.0857974 2.60376 0.732264 2.80601 1.04092C2.95311 1.26518 3.39891 2.12363 3.56138 2.21466C3.85014 2.37622 4.19919 2.16372 3.95051 1.82552C3.72234 1.51476 3.40916 1.49245 3.35098 0.978225C3.28708 0.412756 3.74012 -0.0586692 4.06747 0.593308C4.35834 1.17264 4.51026 1.63382 4.94611 2.15619C5.4317 2.73763 5.94231 3.0499 5.57096 3.92825C5.02478 5.22075 3.19696 4.92656 2.1052 4.63509C1.66935 4.51874 0.346703 4.06118 0.109484 3.707C0.0232768 3.5783 -0.0228408 3.37665 0.15319 3.3031C0.529667 3.14576 1.27177 3.79472 1.65789 3.87671C1.85713 3.91921 1.97047 3.8333 1.86678 3.63768C1.74561 3.4092 0.520624 3.06648 0.198102 2.80485C-0.051476 2.60259 -0.110253 2.19236 0.288227 2.19989C0.746993 2.20863 1.56686 2.83529 2.00121 3.05111C2.14469 3.12225 2.34604 3.26723 2.35538 2.99957C2.36051 2.85368 2.18478 2.72497 2.07898 2.64147C1.73958 2.37291 0.296064 1.63955 0.219202 1.30617C0.178509 1.12894 0.265922 0.907089 0.464861 0.907692C1.03033 0.9095 2.0202 1.87797 2.45907 2.23094C2.58658 2.33342 2.82922 2.5405 2.98234 2.3934C3.02545 2.2659 2.82591 2.04315 2.74362 1.94639C2.47384 1.6293 1.56747 0.862478 1.5105 0.496853C1.48397 0.327152 1.47252 0.0525554 1.6814 0.00704055L1.68201 0.00734227Z" fill="var(--fill-0, #FED11E)"/>
</svg>
