<svg preserveAspectRatio="none" width="100%" height="100%" overflow="visible" style="display: block;" viewBox="0 0 5 3" fill="none" xmlns="http://www.w3.org/2000/svg">
<path id="Vector" d="M3.57791 2.07838C3.52094 1.83785 2.93679 1.37576 2.71735 1.38662C2.58563 1.39325 2.43432 1.83815 2.29687 1.83815C2.15942 1.83815 2.0277 1.40048 1.87427 1.38451C1.61445 1.35768 1.03782 1.88065 0.955536 2.13836C0.572126 1.85352 0.339126 1.55722 0.171234 1.09906C0.0961795 0.894394 -0.0958268 0.193284 0.0582002 0.0353385C0.220366 -0.0553897 0.402123 0.049807 0.554041 0.113709C1.25485 0.408199 1.66991 0.742476 2.50425 0.657776C3.10619 0.596889 3.52848 0.255679 4.05235 0.0657825C4.47344 -0.0867374 4.51202 0.0510128 4.48158 0.465168C4.44179 1.00893 4.09787 1.69618 3.68341 2.04975C3.64483 2.0826 3.58605 2.07235 3.57761 2.07838H3.57791Z" fill="var(--fill-0, #34353C)"/>
</svg>
