<svg width="42" height="48" viewBox="0 0 42 48" fill="none" xmlns="http://www.w3.org/2000/svg">
<path fill-rule="evenodd" clip-rule="evenodd" d="M31.0818 7.04466H41.89L41.8852 7.04694L32.1748 16.7667C32.007 16.8249 32.0442 16.6922 31.9556 16.599C28.0127 12.5069 21.7791 11.9429 17.2746 15.4943C11.5444 20.0128 11.824 28.8006 17.8083 32.9578C22.2965 36.0781 28.5162 35.3626 32.0979 31.2449L32.1793 31.224L41.8875 41.0068H31.0235L23.9743 48L16.9251 41.0068H6.99323V31.0749L0 24.0257L6.99323 16.9765V7.04466H16.9251L23.9813 0L31.0818 7.04466ZM23.3592 45.4389V41.0113H18.8733L23.3592 45.4389ZM24.6408 45.4389L29.1267 41.0113H24.6408V45.4389ZM32.177 33.1513C31.6015 33.5637 31.0633 34.0181 30.4621 34.3956C28.7004 35.5002 26.7195 36.085 24.6408 36.2364V39.6737H38.681V39.6714L32.177 33.1513ZM9.31899 39.6714H23.3592V36.2342C21.4786 36.1013 19.7029 35.6026 18.0554 34.6915C17.2491 34.2441 16.564 33.6895 15.8229 33.1536L9.31899 39.6714ZM8.32861 38.681L14.8442 32.1771C14.865 32.0697 14.2477 31.38 14.1312 31.2169C12.7703 29.3107 11.9033 27.0597 11.8241 24.6991H8.32861V38.681ZM6.98868 29.1267V24.6991H2.56107L6.98868 29.1267ZM2.56107 23.3592H6.98868V18.9316L2.56107 23.3592ZM8.32861 23.3592H11.8241C11.922 20.5931 13.0825 17.9202 14.9118 15.8742L8.32861 9.37725V23.3592ZM24.6408 11.8241C27.4139 11.9826 30.0682 13.0615 32.1258 14.9118L38.6227 8.38687H24.6408V11.8241ZM15.8229 14.9072C17.9622 13.1059 20.5371 11.9686 23.3592 11.8241V8.38687H9.31899L15.8229 14.9072ZM18.8733 7.04694H23.2729L23.3614 6.95841V2.61933H23.3592L18.8733 7.04694ZM24.6408 6.95841L24.7294 7.04694H29.1267L24.6408 2.61933V6.95841Z" fill="white"/>
</svg>
