<svg width="15" height="14" viewBox="0 0 15 14" fill="none" xmlns="http://www.w3.org/2000/svg">
<path d="M9.28728 12.6C9.47673 12.6 9.65838 12.6738 9.79235 12.8051C9.92631 12.9364 10.0016 13.1143 10.0016 13.3C10.0016 13.4857 9.92631 13.6636 9.79235 13.7949C9.65838 13.9262 9.47673 14 9.28728 14C9.09782 14 8.91548 13.9262 8.78151 13.7949C8.64754 13.6636 8.57223 13.4857 8.57223 13.3C8.57223 13.1143 8.64754 12.9364 8.78151 12.8051C8.91548 12.6738 9.09782 12.6 9.28728 12.6Z" fill="white"/>
<path d="M12.144 7.7C12.2872 7.70003 12.4274 7.74203 12.5458 7.821C12.6642 7.89998 12.7555 8.01241 12.8081 8.14297C13.0174 8.66307 13.2128 8.97627 13.4485 9.20937C13.6842 9.44171 14.0066 9.63926 14.5486 9.84922C14.6818 9.90082 14.796 9.99028 14.8765 10.1062C14.9571 10.2223 15 10.3596 15 10.5C15 10.6404 14.9571 10.7777 14.8765 10.8938C14.796 11.0097 14.6818 11.0992 14.5486 11.1508C14.0066 11.3607 13.6842 11.5583 13.4485 11.7906C13.2128 12.023 13.0174 12.3369 12.8081 12.857C12.7555 12.9875 12.6642 13.0994 12.5458 13.1783C12.4273 13.2573 12.2873 13.2993 12.144 13.2993C12.0007 13.2993 11.8606 13.2573 11.7422 13.1783C11.6238 13.0994 11.5325 12.9875 11.4799 12.857C11.2706 12.3369 11.0752 12.0237 10.8395 11.7906C10.6037 11.5583 10.2814 11.3607 9.73933 11.1508C9.60622 11.0992 9.49197 11.0097 9.41145 10.8938C9.33088 10.7777 9.28797 10.6404 9.28797 10.5C9.28797 10.3596 9.33088 10.2223 9.41145 10.1062C9.49197 9.99028 9.60622 9.90082 9.73933 9.84922C10.2814 9.63926 10.6037 9.44171 10.8395 9.20937C11.0752 8.97697 11.2706 8.66307 11.4799 8.14297C11.5325 8.01241 11.6237 7.89998 11.7422 7.821C11.8606 7.74203 12.0007 7.70003 12.144 7.7Z" fill="white"/>
<path d="M10.1725 1.78898e-10C10.7475 4.57382e-10 11.2225 -3.50371e-05 11.6082 0.0307617C12.0104 0.0629617 12.38 0.131983 12.7265 0.304883C13.264 0.573312 13.7013 1.00176 13.9752 1.52852C14.1517 1.86802 14.2221 2.23023 14.255 2.62363C14.2871 3.003 14.287 3.46775 14.287 4.03047V5.97119C14.287 6.15677 14.2117 6.33488 14.0778 6.46611C13.9438 6.59733 13.7621 6.67119 13.5727 6.67119C13.3833 6.67119 13.2016 6.59733 13.0676 6.46611C12.9337 6.33488 12.8584 6.15677 12.8583 5.97119V4.2H1.4287V8.54014C1.4287 9.13991 1.42878 9.54724 1.45591 9.86221C1.48091 10.1688 1.52712 10.3265 1.58427 10.4357C1.72124 10.6991 1.93985 10.9133 2.20863 11.0476C2.32007 11.1036 2.48033 11.1488 2.79393 11.1733C3.11535 11.1999 3.53104 11.2 4.1431 11.2H7.14003C7.32946 11.2 7.51116 11.2738 7.6451 11.4051C7.77904 11.5363 7.85439 11.7144 7.85439 11.9C7.85439 12.0856 7.77904 12.2636 7.6451 12.3949C7.51116 12.5262 7.32946 12.6 7.14003 12.6H4.1138C3.53883 12.6 3.06384 12.6 2.67812 12.5692C2.27594 12.537 1.90632 12.468 1.55985 12.2951C1.0223 12.0267 0.585065 11.5982 0.311134 11.0715C0.134689 10.732 0.0642526 10.3698 0.0313924 9.97637C-3.36159e-05 9.597 3.36661e-10 9.13225 1.55928e-10 8.56953V4.03047C3.362e-10 3.46705 -3.36611e-05 3.0016 0.0313924 2.62363C0.0642526 2.22953 0.134689 1.86733 0.311134 1.52783C0.585064 1.00108 1.0223 0.57263 1.55985 0.304199C1.90632 0.131299 2.27596 0.0622781 2.67743 0.0300781C3.06456 -1.65302e-05 3.53955 4.06424e-10 4.1138 1.78898e-10H10.1725Z" fill="white"/>
</svg>
