<svg width="32" height="24" viewBox="0 0 32 24" fill="none" xmlns="http://www.w3.org/2000/svg">
<path d="M0 17.0566C2.22316 16.4827 5.045 16.0049 8.15614 16.3154C10.9213 16.5914 13.5529 17.385 15.9549 18.0599C18.4245 18.7537 20.7397 19.3524 23.2199 19.4726C26.5387 19.6334 29.8804 18.9355 32.0091 18.3372V22.9936C29.5868 23.587 26.3254 24.1324 23.002 23.9714C19.9637 23.8242 17.2143 23.0921 14.7367 22.396C12.1915 21.6809 9.9931 21.0253 7.70876 20.7973C4.6692 20.4939 2.14037 21.099 0 21.7443V17.0566Z" fill="white"/>
<path d="M0 9.05174C2.27912 8.43392 5.25155 7.87754 8.54898 8.2067C11.3141 8.48272 13.9458 9.27619 16.3478 9.95105C18.8175 10.6449 21.1326 11.2436 23.6128 11.3638C26.734 11.515 29.8755 10.9068 32.0091 10.3362V14.9788C29.6331 15.5342 26.5418 16.0151 23.3949 15.8626C20.3566 15.7154 17.6071 14.9834 15.1295 14.2873C12.5843 13.5722 10.3859 12.9165 8.10161 12.6885C4.874 12.3663 2.22224 13.0683 0 13.7553V9.05174Z" fill="white"/>
<path d="M0 1.05181C2.32525 0.39322 5.45148 -0.250518 8.94183 0.0978861C11.707 0.373911 14.3387 1.16747 16.7407 1.84233C19.2103 2.53619 21.5255 3.13487 24.0057 3.25504C26.9404 3.39724 29.8931 2.86804 32.0091 2.32992V6.95967C29.6905 7.47569 26.764 7.89808 23.7877 7.75388C20.7494 7.60667 18 6.87464 15.5225 6.17855C12.9773 5.46346 10.7789 4.80772 8.49454 4.57969C5.07451 4.2383 2.30101 5.0469 0 5.76911V1.05181Z" fill="white"/>
</svg>
